<svg class="w-10 h-10 fill-white bg-blue-950 rounded-full m-1" xmlns="http://www.w3.org/2000/svg" viewBox="-47 -47 564 564" value=<%= rates.xpf %>>
  <path d="M401 69a233 233 0 0 0-332 0 233 233 0 0 0 0 332 233 233 0 0 0 332 0 233 233 0 0 0 0-332zM235 455a220 220 0 1 1 0-440 220 220 0 0 1 0 440z"/>
  <path d="M235 25a210 210 0 1 0 137 369 8 8 0 0 0-10-11 195 195 0 1 1 21-21 8 8 0 0 0 11 10A210 210 0 0 0 235 25z"/>
  <path d="m178 379 1 4c1 2 26 32 57 32 32 0 56-30 57-32l2-4c0-21-11-39-26-49a7 7 0 0 0-12-6 58 58 0 0 0-41 0 7 7 0 0 0-12 6 58 58 0 0 0-26 49zm73-41-10 39a8 8 0 0 0 14 4l10-35c8 7 14 18 15 30-6 6-23 24-44 24-20 0-38-18-43-24 1-12 6-23 15-30l9 35a8 8 0 0 0 15-4l-11-39a43 43 0 0 1 30 0zm-123 37 10 2 11-1a7 7 0 0 0 14-1l5-16 6-16a8 8 0 0 0-12-8c-4-6-11-11-17-13a28 28 0 1 0-17 53zm-4-30a13 13 0 0 1 16-8c8 2 16 12 14 18-1 4-8 7-16 7l-6-1a13 13 0 0 1-8-16zm232-16a28 28 0 0 0-39-2c-5 5-9 12-11 19a7 7 0 0 0-6 13l23 24a7 7 0 0 0 13-6c7-1 14-4 19-9 11-11 12-28 1-39zm-11 28c-4 4-10 6-16 6-2 0-5 0-7-2-4-4-1-17 5-23a13 13 0 0 1 18 1c3 2 4 6 4 9s-2 7-4 9zM74 290a8 8 0 0 0 0 15h72a8 8 0 0 0 0-15h-30l2-16h11a8 8 0 0 0 0-15h-8l5-16h171a7 7 0 1 0 0-15H131l7-18 22 7h5l34-12 33 12a7 7 0 0 0 6 0l33-12 24 9a7 7 0 1 0 5-15l-26-9h-5l-34 12-34-12h-5l-34 12-17-6c18-35 44-66 77-90 23 7 39 30 39 54 0 4 3 8 7 8s8-3 8-7a71 71 0 0 0-36-63c19-4 39 1 53 15a7 7 0 0 0 10 1c3-3 4-8 1-11a71 71 0 0 0-81-15c-9-12-21-21-36-25a7 7 0 1 0-4 14c7 2 14 6 20 11a71 71 0 0 0-62 39 7 7 0 1 0 14 6c9-17 27-28 46-29-29 23-53 53-70 87l-3-1h-5l-34 12-21-7a7 7 0 1 0-5 14l24 8h5l31-11-8 22H62a8 8 0 0 0 0 15h48l-4 16H65a8 8 0 0 0 0 15h38l-2 16H74zm302-47h32a7 7 0 1 0 0-15h-32a7 7 0 1 0 0 15zm5-25 2-1 24-8a8 8 0 0 0-5-14l-21 7-14-5a7 7 0 1 0-5 15l16 5 3 1z"/>
  <path d="M305 282c0-5-4-8-8-8H173a8 8 0 0 0 0 15h124c4 0 8-3 8-7zm59-98a7 7 0 1 0 0-15h-37c-4 0-7 3-7 7v106a7 7 0 1 0 15 0v-39h10a7 7 0 1 0 0-15h-10v-44h29z"/>
</svg>